# xmcd
#
# Track frame offsets: 
#        150
#        12992
#        26757
#        36102
#        52572
#        64606
#        73741
#        88155
#        101109
#        117404
#        130721
#        152056
#        171564
#        179436
#        194788
#        207117
#        217321
#        231208
#
# Disc length: 3241 seconds
#
# Revision: 1
# Processed by: cddbd v1.5.2PL0 Copyright (c) Steve Scherf et al.
# Submitted via: ExactAudioCopyFreeDBPlugin 1.0
#
DISCID=0c0ca712
DTITLE=Shirley Horn - Jazzclub Legends - The Swinging Shirley Horn
DYEAR=2009
DGENRE=Jazz
TTITLE0=Don´t be on the outside
TTITLE1=Mack the knife
TTITLE2=The great city
TTITLE3=O got plenty o´nuttin´
TTITLE4=That´s no joke
TTITLE5=Big city
TTITLE6=Hit the road jack
TTITLE7=This can´t be love
TTITLE8=Hard hearted hannah
TTITLE9=Peel me a grape
TTITLE10=Fever
TTITLE11=Come fly with me
TTITLE12=Sunday in New York
TTITLE13=How I am to know
TTITLE14=There´s a boat that´s leaving soon for New York
TTITLE15=Come dance with me
TTITLE16=Let me love you
TTITLE17=The best is yet to come
EXTD=YEAR: 2009
EXTT0=
EXTT1=
EXTT2=
EXTT3=
EXTT4=
EXTT5=
EXTT6=
EXTT7=
EXTT8=
EXTT9=
EXTT10=
EXTT11=
EXTT12=
EXTT13=
EXTT14=
EXTT15=
EXTT16=
EXTT17=
PLAYORDER=
